# File created by Blade
# Date/Time:  Wed Jan 21 18:02:19 2015
# Frame Rate: 120.000 fps
#------------------------------------------------------
:FULLY-SPECIFIED
:DEGREES
856
root 18.740805 35.493792 -20.621536 -176.601826 -1.324252 -179.909001
Spine -6.592293 4.213254 -14.739015
Head 5.392048 -11.146621 15.205248
LeftShoulder -2.862717 -22.230144 0.004130
LeftArm -12.177633 11.023405 -64.906643
LeftForeArm -14.294228 -0.000000 0.556656
LeftHand -1.771612 -0.000000 7.844737
LeftHandThumb1 -26.253704 0.000000 33.147579
RightShoulder -8.940568 -9.288821 13.933739
RightArm 27.115341 -9.342667 59.302608
RightForeArm -18.587429 -0.000000 24.458540
RightHand -1.196856 -0.000000 -1.047597
RightHandThumb1 -24.326973 -0.000000 -32.862282
LeftUpLeg -9.597115 14.895043 -9.525297
LeftLeg 14.960515 -0.000000 -0.000000
LeftFoot -25.011862 6.185241 -13.246665
LeftToeBase 33.946754 -0.000000 -0.000000
RightUpLeg -3.507309 -10.478782 5.746433
RightLeg 16.909781 -0.000000 -0.000000
RightFoot -38.563619 -26.000753 23.188901
RightToeBase 11.559571 -0.000000 -0.000000
857
root 18.753139 35.499833 -20.567696 -176.519368 -1.384335 -179.821484
Spine -6.717546 4.559046 -14.674924
Head 5.071402 -11.343907 15.087042
LeftShoulder -2.899112 -22.034644 0.067959
LeftArm -13.047036 11.197390 -65.029512
LeftForeArm -14.757263 -0.000000 0.592948
LeftHand -2.141339 -0.000000 7.715612
LeftHandThumb1 -26.253704 0.000000 33.147579
RightShoulder -8.911703 -9.272413 13.966325
RightArm 27.696294 -9.547299 59.241758
RightForeArm -19.023569 -0.000000 24.449988
RightHand -1.177150 -0.000000 -1.056196
RightHandThumb1 -24.326973 -0.000000 -32.862282
LeftUpLeg -9.830054 14.831006 -9.451018
LeftLeg 15.077514 -0.000000 -0.000000
LeftFoot -25.003121 6.122285 -13.345602
LeftToeBase 34.164118 -0.000000 -0.000000
RightUpLeg -3.379888 -10.497087 5.896672
RightLeg 16.292580 -0.000000 -0.000000
RightFoot -38.186321 -25.832457 22.966792
RightToeBase 11.622366 -0.000000 -0.000000
858
root 18.729847 35.494439 -20.526927 -176.623485 -1.505472 -180.021732
Spine -6.587809 4.844120 -14.853309
Head 4.725248 -11.497213 14.937173
LeftShoulder -2.948905 -21.827852 0.186794
LeftArm -13.886304 11.216359 -65.244246
LeftForeArm -15.326162 -0.000000 0.562447
LeftHand -2.003341 -0.000000 7.599671
LeftHandThumb1 -26.253704 0.000000 33.147579
RightShoulder -8.823703 -9.219832 13.879810
RightArm 28.208200 -9.817490 59.273326
RightForeArm -19.415753 -0.000000 24.501331
RightHand -1.014405 0.000000 -0.994614
RightHandThumb1 -24.326973 -0.000000 -32.862282
LeftUpLeg -9.737119 14.542303 -9.642545
LeftLeg 15.027436 -0.000000 -0.000000
LeftFoot -24.849604 6.231128 -13.268637
LeftToeBase 34.088223 -0.000000 -0.000000
RightUpLeg -3.445418 -11.579339 5.580026
RightLeg 16.494490 -0.000000 -0.000000
RightFoot -37.829893 -24.536657 22.599979
RightToeBase 11.298374 -0.000000 -0.000000
859
root 18.749187 35.505852 -20.455669 -176.397615 -1.566906 -179.786848
Spine -6.851067 5.111074 -14.606615
Head 4.460479 -11.614148 14.818345
LeftShoulder -3.070545 -21.526320 0.167706
LeftArm -14.546353 10.852348 -65.237971
LeftForeArm -15.442057 -0.000000 0.484231
LeftHand -1.951457 -0.000000 7.764866
LeftHandThumb1 -26.253704 0.000000 33.147579
RightShoulder -8.752222 -9.197752 13.941221
RightArm 28.707302 -10.226799 59.021367
RightForeArm -19.701774 -0.000000 24.658915
RightHand -1.102687 0.000000 -1.089736
RightHandThumb1 -24.326973 -0.000000 -32.862282
LeftUpLeg -10.179261 14.453438 -9.445135
LeftLeg 15.211793 -0.000000 -0.000000
LeftFoot -24.853567 6.117771 -13.238045
LeftToeBase 34.282355 -0.000000 -0.000000
RightUpLeg -2.979463 -9.825985 6.031787
RightLeg 14.861921 -0.000000 -0.000000
RightFoot -37.576393 -25.942683 22.691754
RightToeBase 11.342417 -0.000000 -0.000000
860
root 18.750867 35.506360 -20.400211 -176.355404 -1.593002 -179.775153
Spine -6.919464 5.464356 -14.594571
Head 4.188023 -11.803656 14.675535
LeftShoulder -3.104690 -21.075244 0.234488
LeftArm -15.170845 10.767653 -65.372947
LeftForeArm -15.772788 -0.000000 0.559052
LeftHand -1.942747 -0.000000 7.577221
LeftHandThumb1 -26.253704 0.000000 33.147579
RightShoulder -8.675672 -9.184836 13.930697
RightArm 29.187746 -10.557349 58.945597
RightForeArm -20.096097 -0.000000 24.825899
RightHand -1.056025 0.000000 -1.056716
RightHandThumb1 -24.326973 -0.000000 -32.862282
LeftUpLeg -10.363427 14.383901 -9.451844
LeftLeg 15.321523 -0.000000 -0.000000
LeftFoot -24.805293 6.027778 -13.412529
LeftToeBase 34.345029 -0.000000 -0.000000
RightUpLeg -2.817499 -9.556033 6.069702
RightLeg 14.212009 -0.000000 -0.000000
RightFoot -37.118525 -25.854921 22.465110
RightToeBase 11.039235 -0.000000 -0.000000
861
root 18.741813 35.502792 -20.340414 -176.315285 -1.564276 -179.813254
Spine -6.949733 5.806575 -14.600939
Head 3.846884 -11.857635 14.543175
LeftShoulder -3.148060 -20.966895 0.304560
LeftArm -16.103428 10.465797 -65.487114
LeftForeArm -15.637572 -0.000000 0.666762
LeftHand -1.953018 0.000000 7.220344
LeftHandThumb1 -26.253704 0.000000 33.147579
RightShoulder -8.589341 -9.131663 13.859069
RightArm 29.719606 -10.992107 58.867405
RightForeArm -20.452533 -0.000000 24.876208
RightHand -0.902095 -0.000000 -0.944983
RightHandThumb1 -24.326973 -0.000000 -32.862282
LeftUpLeg -10.565586 14.270602 -9.522580
LeftLeg 15.469452 -0.000000 -0.000000
LeftFoot -24.749241 5.989363 -13.443404
LeftToeBase 34.390492 -0.000000 -0.000000
RightUpLeg -2.686132 -9.327664 6.005115
RightLeg 13.614587 -0.000000 -0.000000
RightFoot -36.658775 -25.643792 22.145481
RightToeBase 10.899211 -0.000000 -0.000000
